<svg width="1280" height="674" viewBox="0 0 1280 674" fill="none" xmlns="http://www.w3.org/2000/svg">
<path d="M1270.37 648.803C1216.43 634.677 1161.31 622.677 1105.38 612.615L1105.45 531.24H1136.63C1141.45 531.24 1145.82 528.552 1148.01 524.302C1150.2 519.99 1149.82 514.865 1147.01 510.928L1116.64 468.99H1116.57C1116.95 467.865 1117.14 466.678 1117.14 465.49V371.428H1167.39L1167.45 371.365C1172.26 371.365 1176.7 368.678 1178.82 364.365C1181.01 360.053 1180.57 354.865 1177.7 350.991L948.885 41.4838C948.572 41.0463 948.26 40.6714 947.885 40.2964C947.76 40.1714 947.635 39.9838 947.51 39.8588V39.9213C946.947 39.3588 946.322 38.8588 945.697 38.4213L945.572 38.2963C945.447 38.1713 945.26 38.1713 945.135 38.0463V38.1088C944.635 37.7963 944.072 37.5464 943.51 37.2964L942.697 36.9838H942.76C942.26 36.8588 941.76 36.7338 941.322 36.6088L940.447 36.4214C939.947 36.3589 939.385 36.2964 938.885 36.2964H938.135C936.635 36.3589 935.197 36.6714 933.822 37.1714L633.196 157.483C630.321 158.608 628.008 160.733 626.571 163.483L548.259 314.67L426.947 267.482H426.822C426.134 267.232 425.447 267.045 424.759 266.92L424.259 266.795C423.634 266.732 423.009 266.67 422.384 266.67H421.572C421.009 266.67 420.384 266.732 419.759 266.857L419.322 266.92H419.384C418.697 267.107 418.009 267.357 417.384 267.607L416.947 267.795H416.884C416.322 268.107 415.759 268.42 415.197 268.795L415.009 268.92C414.384 269.295 413.884 269.794 413.384 270.294L413.009 270.669C412.509 271.169 412.072 271.732 411.697 272.295V272.42L248.883 518.606V518.731C248.758 518.919 248.696 519.169 248.571 519.356H248.508C248.258 519.856 247.946 520.419 247.696 520.981C247.571 521.356 247.446 521.794 247.321 522.169C247.196 522.544 247.071 522.919 247.008 523.356C246.883 523.981 246.821 524.606 246.821 525.169V525.856C246.821 526.669 246.883 527.481 247.071 528.294C247.071 528.606 247.258 528.919 247.383 529.231C247.508 529.731 247.633 530.231 247.821 530.731C248.008 531.106 248.196 531.481 248.383 531.794C248.571 532.169 248.758 532.544 249.008 532.919C249.258 533.294 249.571 533.669 249.883 534.044C250.133 534.356 250.383 534.669 250.633 534.919C251.258 535.481 251.883 536.044 252.508 536.481C252.696 536.606 252.883 536.669 253.071 536.794H253.133C253.633 537.106 254.196 537.419 254.758 537.669C255.133 537.856 255.508 537.919 255.883 538.044V537.981C256.821 538.356 257.821 538.544 258.821 538.544H287.821V606.481C263.821 610.419 239.946 614.731 216.195 619.419C214.32 599.107 212.633 576.919 211.07 553.356C210.32 537.793 203.945 402.476 202.258 333.356H202.32C214.695 318.731 228.446 305.293 243.446 293.356C266.82 299.356 291.571 292.043 307.946 274.356C324.32 256.668 329.695 231.481 321.946 208.668C335.634 192.168 341.82 170.793 338.946 149.543C333.571 130.48 321.196 114.105 304.383 103.543C301.633 78.2919 288.634 31.5426 260.132 19.4799C237.383 9.97992 211.444 11.8549 190.32 24.5425C171.32 2.91713 141.32 -5.33224 113.946 3.47976C86.5709 12.2298 67.0082 36.4171 64.1335 65.0425C33.3215 76.0425 11.8829 104.23 9.5082 136.854C7.13353 169.478 24.1962 200.48 53.0709 215.854C51.0083 229.292 52.1959 243.042 56.5083 255.98C66.0083 284.042 91.071 308.542 131.008 328.98C130.633 342.042 130.196 355.105 129.758 369.168C122.008 367.543 114.321 366.105 106.821 364.668L106.758 364.605C80.8212 360.605 55.3212 353.918 30.7585 344.793C30.1335 344.543 29.5085 344.356 28.8836 344.231C28.6961 344.231 28.4461 344.106 28.2586 344.043C27.7586 343.981 27.1961 343.918 26.6335 343.918H25.696C25.3835 343.918 24.946 343.981 24.571 344.043C23.571 344.106 22.571 344.356 21.6335 344.731C21.446 344.731 21.196 344.856 21.0085 344.918H20.946C20.3835 345.231 19.8835 345.481 19.3835 345.856C19.196 345.981 19.0085 346.043 18.8835 346.106C18.696 346.231 18.2585 346.606 17.946 346.856H17.8835C17.571 347.168 17.196 347.418 16.8835 347.731C16.696 347.918 16.5085 348.168 16.321 348.356H16.3835C15.946 348.793 15.6335 349.231 15.2585 349.731C5.94598 363.919 0.69584 380.356 0.00783984 397.293C-0.11716 400.918 1.25784 404.418 3.75784 406.918C6.32037 409.481 9.82037 410.793 13.4453 410.606C25.0078 410.043 54.4453 415.481 127.82 444.106C127.007 461.981 125.32 495.043 124.007 520.357C123.257 535.045 122.633 547.294 122.382 552.731C120.257 585.731 117.82 615.606 115.007 641.857C105.82 644.107 96.6328 646.419 87.5074 648.794L87.5699 648.857C81.0074 650.794 77.1325 657.669 78.8825 664.294C80.5699 670.981 87.2574 675.106 94.0078 673.606C477.874 576.356 880.008 576.356 1263.87 673.606C1270.62 675.106 1277.31 670.981 1279 664.294C1280.75 657.669 1276.87 650.794 1270.31 648.857L1270.37 648.803ZM1104.37 345.789C1097.31 345.789 1091.56 351.477 1091.56 358.539V434.476L978.433 278.476H986.308C989.683 278.476 992.996 277.102 995.371 274.726C997.746 272.289 999.121 269.039 999.121 265.664V207.852C999.121 204.477 997.746 201.227 995.371 198.789C992.996 196.414 989.683 195.039 986.308 195.039H898.308C894.871 195.039 891.558 196.477 889.121 198.914C886.746 201.414 885.433 204.727 885.496 208.164L886.933 262.039V262.102C886.558 263.227 886.371 264.476 886.371 265.664C886.371 272.727 892.121 278.477 899.183 278.477H945.371L773.998 347.414H773.935C771.31 348.476 769.123 350.414 767.685 352.851L698.06 473.039L689.435 458.165L939.302 71.538L1142.05 345.791L1104.37 345.789ZM578.304 498.296L454.367 305.549L549.555 342.549L606.304 365.861L686.992 505.048C689.242 508.985 693.492 511.423 698.055 511.423C702.617 511.423 706.867 508.985 709.117 505.048L787.492 369.488L935.799 309.862L817.611 505.996C816.361 507.996 815.736 510.308 815.736 512.621V524.746H580.296V505.246C580.296 502.808 579.608 500.433 578.296 498.309L578.304 498.296ZM912.304 252.856L911.429 220.668H929.492V252.856H912.304ZM955.116 220.668H973.491V252.856H955.116V220.668ZM647.116 179.48L906.063 75.9171L675.05 433.424L626.238 349.236C624.8 346.798 622.613 344.861 620.05 343.798L572.05 324.173L647.116 179.48ZM147.93 554.226C148.18 548.601 148.805 536.352 149.555 521.726C151.18 491.038 153.242 449.039 153.742 436.039V435.664H153.68C153.68 435.226 153.68 434.726 153.617 434.289C153.617 433.914 153.617 433.476 153.492 433.101C153.367 432.726 153.305 432.289 153.18 431.914C153.055 431.539 152.93 431.101 152.805 430.726C152.617 430.351 152.492 430.039 152.305 429.664C152.117 429.289 151.93 428.914 151.68 428.539C151.43 428.164 151.18 427.914 150.93 427.539L150.18 426.601C149.93 426.289 149.555 426.039 149.242 425.789C148.93 425.539 148.617 425.226 148.242 424.976C147.93 424.726 147.617 424.601 147.242 424.414L147.18 424.476C146.805 424.226 146.367 424.039 145.93 423.851L145.617 423.664C107.617 406.852 67.8679 394.164 27.1172 385.914C28.1797 381.352 29.6797 376.852 31.6797 372.602C54.6171 380.164 78.1171 385.914 101.992 389.852C113.742 392.102 125.804 394.415 137.866 397.227L137.804 397.165C139.054 397.602 140.304 397.852 141.616 397.915H142.679H142.616C148.554 397.915 153.742 393.852 155.054 388.102C155.554 385.977 155.491 383.79 154.929 381.79V380.165C155.554 360.039 156.116 342.227 156.616 324.039C156.991 322.414 156.991 320.789 156.741 319.227C157.366 294.976 157.929 269.727 158.366 237.164C158.429 233.789 157.116 230.477 154.741 228.039C152.366 225.664 149.116 224.227 145.741 224.227H145.616C138.554 224.227 132.866 229.852 132.804 236.852C132.491 261.226 132.179 281.477 131.679 300.289C108.93 289.476 90.8669 270.852 80.7415 247.852C75.0541 228.164 77.8666 207.04 88.4915 189.54C91.7415 183.227 89.2415 175.54 82.929 172.289C76.6164 169.101 68.929 171.601 65.6783 177.851C63.5532 182.039 61.6783 186.164 60.0532 190.289C41.1786 177.601 31.6159 154.914 35.8026 132.54C39.9892 110.165 57.0532 92.4143 79.2399 87.3516L79.8024 87.2266V87.2891C84.8024 86.2266 89.9275 85.8516 94.9904 86.1016C102.053 86.5391 108.115 81.1016 108.553 74.039C108.928 66.9765 103.553 60.914 96.428 60.539C94.5531 60.414 92.6155 60.414 90.7406 60.414H90.8031C95.5531 42.1634 110.866 28.6647 129.552 26.1021C148.178 23.5395 166.552 32.477 176.052 48.7274V48.8524C179.302 54.4775 181.365 60.7273 182.052 67.2271C182.802 74.2271 189.115 79.2896 196.178 78.5396C203.178 77.7896 208.303 71.477 207.49 64.4142C206.865 58.2892 205.428 52.2268 203.178 46.4142C217.303 37.9142 234.678 36.6643 249.866 43.0393C259.928 47.2893 269.303 65.3513 274.615 84.5393H274.553C268.427 81.6019 261.053 83.9143 257.803 89.9142C254.491 95.8517 256.491 103.352 262.241 106.914C294.241 125.165 310.553 140.414 313.615 154.789C316.053 166.289 310.74 180.414 296.866 199.226C296.741 199.414 296.679 199.539 296.554 199.726L296.616 199.851C296.366 200.226 296.116 200.601 295.929 200.976C295.741 201.351 295.554 201.726 295.429 202.039C295.241 202.414 295.116 202.789 295.054 203.226C294.929 203.601 294.804 204.039 294.741 204.414C294.679 204.851 294.616 205.226 294.554 205.601C294.491 205.976 294.554 206.414 294.554 206.851V208.101C294.554 208.539 294.679 208.914 294.741 209.289C294.804 209.664 294.929 210.101 295.054 210.476V210.539C295.179 210.976 295.304 211.414 295.491 211.851C295.491 212.039 295.616 212.226 295.678 212.414C301.804 225.101 300.741 240.102 292.991 251.851C285.179 263.601 271.866 270.414 257.74 269.851C257.553 269.414 257.303 268.976 257.053 268.539C253.178 262.601 245.24 260.976 239.365 264.789C237.427 266.039 235.49 267.351 233.552 268.726L233.365 268.851V268.914C213.365 283.851 195.302 301.226 179.49 320.602C179.303 320.789 179.24 321.039 179.053 321.227C178.803 321.539 178.553 321.977 178.303 322.352C178.115 322.727 177.928 323.039 177.74 323.414C177.553 323.789 177.365 324.164 177.24 324.602C177.115 324.977 176.99 325.414 176.865 325.789C176.74 326.164 176.678 326.602 176.615 326.977C176.553 327.414 176.553 327.914 176.49 328.351V329.164C177.928 395.476 184.178 528.671 185.428 554.911C187.053 579.973 188.865 603.348 190.865 624.66C174.302 628.097 157.802 631.785 141.428 635.66C143.803 611.223 146.053 584.035 147.928 554.223L147.93 554.226ZM313.37 602.477V525.852C313.37 522.414 311.995 519.164 309.62 516.789C307.182 514.414 303.932 513.039 300.557 513.039H283.182L422.063 302.853L554.751 508.986V537.549C554.751 544.611 560.438 550.299 567.501 550.299H828.621C831.995 550.299 835.246 548.986 837.683 546.549C840.058 544.174 841.433 540.924 841.433 537.549V516.174L967.496 306.987L1111.5 505.734L1092.62 505.671C1085.56 505.671 1079.81 511.359 1079.81 518.484V608.172V608.109C826.182 566.047 567.555 564.172 313.382 602.484L313.37 602.477ZM453.876 444.917H365.814C362.376 444.917 359.126 446.292 356.689 448.73C354.314 451.167 353.001 454.48 353.001 457.917L354.751 573.542C354.876 580.542 360.564 586.105 367.564 586.105H368.564L454.876 579.23C461.501 578.73 466.688 573.105 466.626 566.418V457.606C466.626 450.606 460.876 444.918 453.813 444.918L453.876 444.917ZM441.064 502.729H422.689L422.627 470.479H441.001L441.064 502.729ZM397.064 470.541V502.729H379.315L378.815 470.541H397.064ZM379.689 528.291H397.064V558.102L380.189 559.477L379.689 528.291ZM422.627 556.04V528.291H441.001L441.064 554.665L422.627 556.04ZM1022.25 431.977H934.253C930.816 431.977 927.503 433.352 925.128 435.79C922.691 438.227 921.378 441.54 921.441 444.915L923.191 560.54V560.603C923.253 567.54 929.003 573.165 935.941 573.165H936.941L1023.25 566.29C1029.94 565.728 1035.07 560.165 1035.07 553.478V444.666C1035 437.666 1029.32 431.915 1022.25 431.977ZM1009.44 489.789H991.066V457.539H1009.44V489.789ZM965.441 457.601V489.789H947.691L947.191 457.601H965.441ZM948.066 515.413L965.441 515.351V545.163L948.566 546.538L948.066 515.413ZM991.003 543.163L991.066 515.351H1009.44V541.663L991.003 543.163ZM175.817 290.909V290.534C175.504 273.16 175.254 255.409 175.004 237.159C174.942 233.722 176.254 230.472 178.629 228.034C181.004 225.597 184.254 224.222 187.629 224.159H187.817C194.817 224.159 200.504 229.785 200.629 236.785C200.692 243.847 200.817 250.847 200.879 257.785V257.847C212.567 245.785 225.442 234.91 239.379 225.472C242.192 223.535 245.754 222.785 249.129 223.472C252.504 224.097 255.504 226.097 257.379 228.972C259.254 231.847 259.879 235.41 259.192 238.785C258.442 242.097 256.379 245.035 253.442 246.847C232.754 261.473 214.191 278.847 198.316 298.535L198.066 298.785C197.629 299.223 197.191 299.66 196.754 300.035C196.504 300.223 196.316 300.473 196.066 300.598C195.504 301.035 194.879 301.348 194.254 301.66C194.066 301.723 193.941 301.848 193.816 301.91V301.973C193.004 302.285 192.191 302.598 191.316 302.785H190.629C190.066 302.91 189.441 302.973 188.816 302.973H188.566C187.754 302.973 187.004 302.91 186.191 302.785C185.879 302.785 185.629 302.66 185.379 302.535C184.879 302.41 184.441 302.285 183.941 302.098C183.629 301.973 183.316 301.848 183.004 301.66C182.629 301.473 182.254 301.285 181.816 301.035C181.504 300.848 181.191 300.598 180.941 300.41C180.629 300.16 180.504 300.16 180.316 299.973C180.129 299.785 180.129 299.723 180.004 299.66C179.691 299.348 179.316 298.973 179.066 298.66C178.816 298.348 178.566 298.098 178.316 297.785C178.066 297.41 177.816 297.035 177.629 296.66C177.441 296.348 177.191 295.973 177.066 295.598C176.879 295.223 176.754 294.848 176.629 294.41L176.254 293.285C176.129 292.91 176.004 292.598 176.004 292.223C175.941 291.785 175.817 291.347 175.817 290.909Z" fill="black"/>
</svg>
